# This file uses centimeters as units for non-parametric coordinates.

mtllib chair.mtl
g default
v -0.500000 -0.054610 0.500000
v -0.374479 -0.054610 0.500000
v 0.368366 -0.054610 0.500000
v 0.500000 -0.054610 0.500000
v -0.500000 0.054610 0.500000
v -0.374479 0.054610 0.500000
v 0.368366 0.054610 0.500000
v 0.500000 0.054610 0.500000
v -0.500000 0.054610 0.365605
v -0.374479 0.054610 0.365605
v 0.368366 0.054610 0.365605
v 0.500000 0.054610 0.365605
v -0.500000 0.054610 -0.374479
v -0.374479 0.054610 -0.374479
v 0.368366 0.054610 -0.374479
v 0.500000 0.054610 -0.374479
v -0.500000 0.054610 -0.500000
v -0.374479 0.054610 -0.500000
v 0.368366 0.054610 -0.500000
v 0.500000 0.054610 -0.500000
v -0.500000 -0.054610 -0.500000
v -0.374479 -0.054610 -0.500000
v 0.368366 -0.054610 -0.500000
v 0.500000 -0.054610 -0.500000
v -0.500000 -0.054610 -0.374479
v -0.374479 -0.054610 -0.374479
v 0.368366 -0.054610 -0.374479
v 0.500000 -0.054610 -0.374479
v -0.500000 -0.054610 0.365605
v -0.374479 -0.054610 0.365605
v 0.368366 -0.054610 0.365605
v 0.500000 -0.054610 0.365605
v -0.500000 -0.631489 -0.500000
v -0.374479 -0.631489 -0.500000
v -0.374479 -0.631489 -0.374479
v -0.500000 -0.631489 -0.374479
v 0.368366 -0.631489 -0.500000
v 0.500000 -0.631489 -0.500000
v 0.500000 -0.631489 -0.374479
v 0.368366 -0.631489 -0.374479
v -0.500000 -0.631489 0.365605
v -0.374479 -0.631489 0.365605
v -0.374479 -0.631489 0.500000
v -0.500000 -0.631489 0.500000
v 0.368366 -0.631489 0.365605
v 0.500000 -0.631489 0.365605
v 0.500000 -0.631489 0.500000
v 0.368366 -0.631489 0.500000
v -0.500000 0.380893 0.500000
v -0.374479 0.380893 0.500000
v -0.374479 0.380893 0.365605
v -0.500000 0.380893 0.365605
v 0.368366 0.380893 0.500000
v 0.500000 0.380893 0.500000
v 0.500000 0.380893 0.365605
v 0.368366 0.380893 0.365605
v -0.500000 0.814590 0.500000
v -0.374479 0.814590 0.500000
v -0.374479 0.814590 0.365605
v -0.500000 0.814590 0.365605
v 0.368366 0.814590 0.500000
v 0.500000 0.814590 0.500000
v 0.500000 0.814590 0.365605
v 0.368366 0.814590 0.365605
v -0.500000 0.948622 0.500000
v -0.374479 0.948622 0.500000
v -0.374479 0.948622 0.365605
v -0.500000 0.948622 0.365605
v 0.368366 0.948622 0.500000
v 0.500000 0.948622 0.500000
v 0.500000 0.948622 0.365605
v 0.368366 0.948622 0.365605
vt 0.375000 0.000000
vt 0.458333 0.000000
vt 0.541667 0.000000
vt 0.625000 0.000000
vt 0.375000 0.250000
vt 0.458333 0.250000
vt 0.541667 0.250000
vt 0.625000 0.250000
vt 0.375000 0.333333
vt 0.458333 0.333333
vt 0.541667 0.333333
vt 0.625000 0.333333
vt 0.375000 0.416667
vt 0.458333 0.416667
vt 0.541667 0.416667
vt 0.625000 0.416667
vt 0.375000 0.500000
vt 0.458333 0.500000
vt 0.541667 0.500000
vt 0.625000 0.500000
vt 0.375000 0.750000
vt 0.458333 0.750000
vt 0.541667 0.750000
vt 0.625000 0.750000
vt 0.375000 0.833333
vt 0.458333 0.833333
vt 0.541667 0.833333
vt 0.625000 0.833333
vt 0.375000 0.916667
vt 0.458333 0.916667
vt 0.541667 0.916667
vt 0.625000 0.916667
vt 0.375000 1.000000
vt 0.458333 1.000000
vt 0.541667 1.000000
vt 0.625000 1.000000
vt 0.875000 0.000000
vt 0.791667 0.000000
vt 0.708333 0.000000
vt 0.875000 0.250000
vt 0.791667 0.250000
vt 0.708333 0.250000
vt 0.125000 0.000000
vt 0.208333 0.000000
vt 0.291667 0.000000
vt 0.125000 0.250000
vt 0.208333 0.250000
vt 0.291667 0.250000
vt 0.375000 0.750000
vt 0.458333 0.750000
vt 0.458333 0.833333
vt 0.375000 0.833333
vt 0.541667 0.750000
vt 0.625000 0.750000
vt 0.625000 0.833333
vt 0.541667 0.833333
vt 0.375000 0.916667
vt 0.458333 0.916667
vt 0.458333 1.000000
vt 0.375000 1.000000
vt 0.541667 0.916667
vt 0.625000 0.916667
vt 0.625000 1.000000
vt 0.541667 1.000000
vt 0.375000 0.250000
vt 0.458333 0.250000
vt 0.458333 0.333333
vt 0.375000 0.333333
vt 0.541667 0.250000
vt 0.625000 0.250000
vt 0.625000 0.333333
vt 0.541667 0.333333
vt 0.375000 0.250000
vt 0.458333 0.250000
vt 0.458333 0.333333
vt 0.375000 0.333333
vt 0.541667 0.250000
vt 0.625000 0.250000
vt 0.625000 0.333333
vt 0.541667 0.333333
vt 0.375000 0.250000
vt 0.458333 0.250000
vt 0.458333 0.333333
vt 0.375000 0.333333
vt 0.541667 0.250000
vt 0.625000 0.250000
vt 0.625000 0.333333
vt 0.541667 0.333333
vt 0.000000 0.000000
vt 1.000000 0.000000
vt 1.000000 0.187074
vt 0.000000 0.187074
vt 0.000000 0.000000
vt 1.000000 0.000000
vt 1.000000 0.187074
vt 0.000000 0.187074
vt 0.000000 0.000000
vt 1.000000 0.000000
vt 1.000000 0.180919
vt 0.000000 0.180919
vt 0.000000 0.180919
vt 1.000000 0.180919
vt 1.000000 0.000000
vt 0.000000 0.000000
vn 0.000000 0.000000 1.000000
vn 0.000000 0.000000 1.000000
vn 0.000000 0.000000 1.000000
vn 0.000000 0.000000 1.000000
vn 0.000000 0.000000 1.000000
vn 0.000000 0.000000 1.000000
vn 0.000000 0.000000 1.000000
vn 0.000000 0.000000 1.000000
vn 0.000000 1.000000 0.000000
vn 0.000000 1.000000 0.000000
vn 0.000000 1.000000 0.000000
vn 0.000000 1.000000 0.000000
vn 0.000000 1.000000 0.000000
vn 0.000000 1.000000 0.000000
vn 0.000000 1.000000 0.000000
vn 0.000000 1.000000 0.000000
vn 0.000000 1.000000 0.000000
vn 0.000000 1.000000 0.000000
vn 0.000000 1.000000 0.000000
vn 0.000000 1.000000 0.000000
vn 0.000000 1.000000 0.000000
vn 0.000000 1.000000 0.000000
vn 0.000000 1.000000 0.000000
vn 0.000000 1.000000 0.000000
vn 0.000000 1.000000 0.000000
vn 0.000000 1.000000 0.000000
vn 0.000000 1.000000 0.000000
vn 0.000000 1.000000 0.000000
vn 0.000000 1.000000 0.000000
vn 0.000000 1.000000 0.000000
vn 0.000000 0.000000 -1.000000
vn 0.000000 0.000000 -1.000000
vn 0.000000 0.000000 -1.000000
vn 0.000000 0.000000 -1.000000
vn 0.000000 0.000000 -1.000000
vn 0.000000 0.000000 -1.000000
vn 0.000000 0.000000 -1.000000
vn 0.000000 0.000000 -1.000000
vn 0.000000 -1.000000 0.000000
vn 0.000000 -1.000000 0.000000
vn 0.000000 -1.000000 0.000000
vn 0.000000 -1.000000 0.000000
vn 0.000000 -1.000000 0.000000
vn 0.000000 -1.000000 0.000000
vn 0.000000 -1.000000 0.000000
vn 0.000000 -1.000000 0.000000
vn 0.000000 -1.000000 0.000000
vn 0.000000 -1.000000 0.000000
vn 0.000000 -1.000000 0.000000
vn 0.000000 -1.000000 0.000000
vn 0.000000 -1.000000 0.000000
vn 0.000000 -1.000000 0.000000
vn 0.000000 -1.000000 0.000000
vn 0.000000 -1.000000 0.000000
vn 0.000000 -1.000000 0.000000
vn 0.000000 -1.000000 0.000000
vn 0.000000 -1.000000 0.000000
vn 0.000000 -1.000000 0.000000
vn 0.000000 -1.000000 0.000000
vn 0.000000 -1.000000 0.000000
vn 0.000000 -1.000000 0.000000
vn 0.000000 -1.000000 0.000000
vn 0.000000 -1.000000 0.000000
vn 0.000000 -1.000000 0.000000
vn 0.000000 -1.000000 0.000000
vn 0.000000 -1.000000 0.000000
vn 1.000000 -0.000000 0.000000
vn 1.000000 0.000000 0.000000
vn 1.000000 0.000000 0.000000
vn 1.000000 -0.000000 0.000000
vn 1.000000 -0.000000 0.000000
vn 1.000000 -0.000000 0.000000
vn 1.000000 0.000000 0.000000
vn 1.000000 0.000000 0.000000
vn -1.000000 0.000000 0.000000
vn -1.000000 -0.000000 0.000000
vn -1.000000 -0.000000 0.000000
vn -1.000000 0.000000 0.000000
vn -1.000000 -0.000000 0.000000
vn -1.000000 -0.000000 0.000000
vn -1.000000 0.000000 0.000000
vn -1.000000 0.000000 0.000000
vn 0.000000 0.000000 -1.000000
vn 0.000000 0.000000 -1.000000
vn 1.000000 0.000000 0.000000
vn 1.000000 0.000000 0.000000
vn 1.000000 0.000000 0.000000
vn 1.000000 0.000000 0.000000
vn 0.000000 0.000000 1.000000
vn 0.000000 0.000000 1.000000
vn 0.000000 0.000000 1.000000
vn 0.000000 0.000000 1.000000
vn -1.000000 0.000000 0.000000
vn -1.000000 0.000000 0.000000
vn 0.000000 0.000000 -1.000000
vn 0.000000 0.000000 -1.000000
vn 1.000000 0.000000 0.000000
vn 1.000000 0.000000 0.000000
vn 0.000000 0.000000 1.000000
vn 0.000000 0.000000 1.000000
vn 0.000000 0.000000 1.000000
vn 0.000000 0.000000 1.000000
vn -1.000000 0.000000 0.000000
vn -1.000000 0.000000 0.000000
vn -1.000000 0.000000 0.000000
vn -1.000000 0.000000 0.000000
vn 0.000000 0.000000 -1.000000
vn 0.000000 0.000000 -1.000000
vn 0.000000 0.000000 -1.000000
vn 0.000000 0.000000 -1.000000
vn 1.000000 0.000000 0.000000
vn 1.000000 0.000000 0.000000
vn 1.000000 0.000000 0.000000
vn 1.000000 0.000000 0.000000
vn 0.000000 0.000000 1.000000
vn 0.000000 0.000000 1.000000
vn -1.000000 0.000000 0.000000
vn -1.000000 0.000000 0.000000
vn 0.000000 0.000000 -1.000000
vn 0.000000 0.000000 -1.000000
vn 0.000000 0.000000 -1.000000
vn 0.000000 0.000000 -1.000000
vn 1.000000 0.000000 0.000000
vn 1.000000 0.000000 0.000000
vn 0.000000 0.000000 1.000000
vn 0.000000 0.000000 1.000000
vn -1.000000 0.000000 0.000000
vn -1.000000 0.000000 0.000000
vn -1.000000 0.000000 0.000000
vn -1.000000 0.000000 0.000000
vn 0.000000 0.000000 1.000000
vn 0.000000 0.000000 1.000000
vn 1.000000 0.000000 0.000000
vn 1.000000 0.000000 0.000000
vn 0.402151 -0.915573 0.000000
vn 0.402151 -0.915573 0.000000
vn 0.000000 0.000000 -1.000000
vn 0.000000 0.000000 -1.000000
vn 0.000000 0.000000 -1.000000
vn 0.000000 0.000000 -1.000000
vn -1.000000 0.000000 0.000000
vn -1.000000 0.000000 0.000000
vn 0.000000 0.000000 1.000000
vn 0.000000 0.000000 1.000000
vn 1.000000 0.000000 0.000000
vn 1.000000 0.000000 0.000000
vn 0.000000 0.000000 -1.000000
vn 0.000000 0.000000 -1.000000
vn 0.000000 0.000000 -1.000000
vn 0.000000 0.000000 -1.000000
vn -1.000000 0.000000 0.000000
vn -1.000000 0.000000 0.000000
vn -0.402151 -0.915573 0.000000
vn -0.402151 -0.915573 0.000000
vn 0.000000 0.000000 1.000000
vn 0.000000 0.000000 1.000000
vn 0.000000 0.000000 -1.000000
vn 0.000000 0.000000 -1.000000
vn -1.000000 0.000000 0.000000
vn -1.000000 0.000000 0.000000
vn 0.000000 0.000000 1.000000
vn 0.000000 0.000000 1.000000
vn 1.000000 0.000000 0.000000
vn 1.000000 0.000000 0.000000
vn 0.000000 0.000000 -1.000000
vn 0.000000 0.000000 -1.000000
vn 0.000000 0.000000 1.000000
vn 0.000000 0.000000 1.000000
vn 0.177564 0.984109 0.000000
vn 0.177564 0.984109 0.000000
vn 1.000000 0.000000 0.000000
vn 1.000000 0.000000 0.000000
vn 0.000000 0.000000 -1.000000
vn 0.000000 0.000000 -1.000000
vn -1.000000 0.000000 0.000000
vn -1.000000 0.000000 0.000000
vn 0.000000 0.000000 1.000000
vn 0.000000 0.000000 1.000000
vn 1.000000 0.000000 0.000000
vn 1.000000 0.000000 0.000000
vn 0.000000 0.000000 -1.000000
vn 0.000000 0.000000 -1.000000
vn -0.177564 0.984109 0.000000
vn -0.177564 0.984109 0.000000
vn -1.000000 0.000000 0.000000
vn -1.000000 0.000000 0.000000
vn 0.000000 0.000000 -1.000000
vn 0.000000 0.000000 -1.000000
vn 0.000000 0.000000 -1.000000
vn 0.000000 0.000000 -1.000000
vn 0.000000 0.000000 1.000000
vn 0.000000 0.000000 1.000000
vn 0.000000 0.000000 1.000000
vn 0.000000 0.000000 1.000000
s 1
g pCube1
usemtl initialShadingGroup
f 1/1/1 2/2/2 6/6/3 5/5/4
f 2/2/2 3/3/5 7/7/6 6/6/3
f 3/3/5 4/4/7 8/8/8 7/7/6
s off
f 65/81/9 66/82/10 67/83/11 68/84/12
s 2
f 6/6/13 7/7/14 11/11/15 10/10/16
s off
f 69/85/17 70/86/18 71/87/19 72/88/20
s 2
f 9/9/21 10/10/16 14/14/22 13/13/23
f 10/10/16 11/11/15 15/15/24 14/14/22
f 11/11/15 12/12/25 16/16/26 15/15/24
f 13/13/23 14/14/22 18/18/27 17/17/28
f 14/14/22 15/15/24 19/19/29 18/18/27
f 15/15/24 16/16/26 20/20/30 19/19/29
s 3
f 17/17/31 18/18/32 22/22/33 21/21/34
f 18/18/32 19/19/35 23/23/36 22/22/33
f 19/19/35 20/20/37 24/24/38 23/23/36
s off
f 33/49/39 34/50/40 35/51/41 36/52/42
s 4
f 22/22/43 23/23/44 27/27/45 26/26/46
s off
f 37/53/47 38/54/48 39/55/49 40/56/50
s 4
f 25/25/51 26/26/46 30/30/52 29/29/53
f 26/26/46 27/27/45 31/31/54 30/30/52
f 27/27/45 28/28/55 32/32/56 31/31/54
s off
f 41/57/57 42/58/58 43/59/59 44/60/60
s 4
f 30/30/52 31/31/54 3/35/61 2/34/62
s off
f 45/61/63 46/62/64 47/63/65 48/64/66
s 5
f 28/38/67 24/37/68 20/40/69 16/41/70
f 32/39/71 28/38/67 16/41/70 12/42/72
f 4/4/73 32/39/71 12/42/72 8/8/74
s 6
f 21/43/75 25/44/76 13/47/77 17/46/78
f 25/44/76 29/45/79 9/48/80 13/47/77
f 29/45/79 1/1/81 5/5/82 9/48/80
s 3
f 21/21/34 22/22/33 34/50/83 33/49/84
s off
f 22/22/85 26/26/86 35/51/87 34/50/88
f 26/26/89 25/25/90 36/52/91 35/51/92
s 6
f 25/25/76 21/21/75 33/49/93 36/52/94
s 3
f 23/23/36 24/24/38 38/54/95 37/53/96
s 5
f 24/24/68 28/28/67 39/55/97 38/54/98
s off
f 28/28/99 27/27/100 40/56/101 39/55/102
f 27/27/103 23/23/104 37/53/105 40/56/106
f 29/29/107 30/30/108 42/58/109 41/57/110
f 30/30/111 2/34/112 43/59/113 42/58/114
s 1
f 2/34/2 1/33/1 44/60/115 43/59/116
s 6
f 1/33/81 29/29/79 41/57/117 44/60/118
s off
f 31/31/119 32/32/120 46/62/121 45/61/122
s 5
f 32/32/71 4/36/73 47/63/123 46/62/124
s 1
f 4/36/7 3/35/5 48/64/125 47/63/126
s off
f 3/35/127 31/31/128 45/61/129 48/64/130
s 1
f 5/5/4 6/6/3 50/66/131 49/65/132
s 7
f 6/6/133 10/10/134 51/67/135 50/66/136
s 8
f 10/10/137 9/9/138 52/68/139 51/67/140
s 6
f 9/9/80 5/5/82 49/65/141 52/68/142
s 1
f 7/7/6 8/8/8 54/70/143 53/69/144
s 5
f 8/8/74 12/12/72 55/71/145 54/70/146
s 9
f 12/12/147 11/11/148 56/72/149 55/71/150
s 7
f 11/11/151 7/7/152 53/69/153 56/72/154
s 1
f 49/65/132 50/66/131 58/74/155 57/73/156
s 8
f 51/67/140 52/68/139 60/76/157 59/75/158
s 6
f 52/68/142 49/65/141 57/73/159 60/76/160
s 1
f 53/69/144 54/70/143 62/78/161 61/77/162
s 5
f 54/70/146 55/71/145 63/79/163 62/78/164
s 9
f 55/71/150 56/72/149 64/80/165 63/79/166
s 1
f 57/73/156 58/74/155 66/82/167 65/81/168
s 10
f 58/74/169 59/75/170 67/83/171 66/82/172
s 8
f 59/75/158 60/76/157 68/84/173 67/83/174
s 6
f 60/76/160 57/73/159 65/81/175 68/84/176
s 1
f 61/77/162 62/78/161 70/86/177 69/85/178
s 5
f 62/78/164 63/79/163 71/87/179 70/86/180
s 9
f 63/79/166 64/80/165 72/88/181 71/87/182
s 10
f 64/80/183 61/77/184 69/85/185 72/88/186
s off
f 64/89/187 56/90/188 51/91/189 59/92/190
f 58/93/191 50/94/192 53/95/193 61/96/194
s 10
f 58/97/169 61/98/184 64/99/183 59/100/170
s 7
f 53/101/153 50/102/136 51/103/135 56/104/154
