# This file uses centimeters as units for non-parametric coordinates.

mtllib closet.mtl
g default
v -0.299105 0.079113 0.443845
v 0.000000 0.079113 0.443845
v 0.299105 0.079113 0.443845
v -0.299105 0.774552 0.443845
v 0.000000 0.774552 0.443845
v 0.299105 0.774552 0.443845
v -0.299105 1.469991 0.443845
v 0.000000 1.469991 0.443845
v 0.299105 1.469991 0.443845
v -0.299105 1.469991 -0.001602
v 0.000000 1.469991 -0.001602
v 0.299105 1.469991 -0.001602
v -0.299105 1.469991 -0.447049
v 0.000000 1.469991 -0.447049
v 0.299105 1.469991 -0.447049
v -0.299105 0.774552 -0.447049
v 0.000000 0.774552 -0.447049
v 0.299105 0.774552 -0.447049
v -0.299105 0.079113 -0.447049
v 0.000000 0.079113 -0.447049
v 0.299105 0.079113 -0.447049
v -0.299105 0.079113 -0.001602
v 0.000000 0.079113 -0.001602
v 0.299105 0.079113 -0.001602
v 0.299105 0.774552 -0.001602
v -0.299105 0.774552 -0.001602
v 0.326770 0.105164 0.024953
v 0.326770 0.105164 0.434070
v 0.326770 0.774552 0.024953
v 0.326770 0.774552 0.434070
v 0.326770 1.443939 0.024953
v 0.326770 1.443939 0.434070
v 0.328884 0.106042 -0.438524
v 0.328884 0.106042 -0.026747
v 0.328884 0.774552 -0.438524
v 0.328884 0.774552 -0.026747
v 0.328884 1.443062 -0.438524
v 0.328884 1.443062 -0.026747
v 0.326770 0.105164 0.024953
v 0.326770 0.105164 0.434070
v 0.326770 0.774552 0.024953
v 0.326770 0.774552 0.434070
v 0.326770 1.443940 0.024953
v 0.326770 1.443940 0.434070
vt 0.375000 0.000000
vt 0.500000 0.000000
vt 0.625000 0.000000
vt 0.375000 0.125000
vt 0.500000 0.125000
vt 0.625000 0.125000
vt 0.375000 0.250000
vt 0.500000 0.250000
vt 0.625000 0.250000
vt 0.375000 0.375000
vt 0.500000 0.375000
vt 0.625000 0.375000
vt 0.375000 0.500000
vt 0.500000 0.500000
vt 0.625000 0.500000
vt 0.375000 0.625000
vt 0.500000 0.625000
vt 0.625000 0.625000
vt 0.375000 0.750000
vt 0.500000 0.750000
vt 0.625000 0.750000
vt 0.375000 0.875000
vt 0.500000 0.875000
vt 0.625000 0.875000
vt 0.375000 1.000000
vt 0.500000 1.000000
vt 0.625000 1.000000
vt 0.875000 0.000000
vt 0.750000 0.000000
vt 0.875000 0.125000
vt 0.750000 0.125000
vt 0.875000 0.250000
vt 0.750000 0.250000
vt 0.125000 0.000000
vt 0.250000 0.000000
vt 0.125000 0.125000
vt 0.250000 0.125000
vt 0.125000 0.250000
vt 0.250000 0.250000
vt 0.625000 0.000000
vt 0.750000 0.000000
vt 0.750000 0.125000
vt 0.625000 0.125000
vt 0.750000 0.250000
vt 0.625000 0.250000
vt 0.750000 0.000000
vt 0.875000 0.000000
vt 0.875000 0.125000
vt 0.750000 0.125000
vt 0.875000 0.250000
vt 0.750000 0.250000
vt 0.625000 0.000000
vt 0.750000 0.000000
vt 0.750000 0.125000
vt 0.625000 0.125000
vt 0.750000 0.250000
vt 0.625000 0.250000
vn 0.000000 0.000000 1.000000
vn 0.000000 0.000000 1.000000
vn 0.000000 0.000000 1.000000
vn 0.000000 0.000000 1.000000
vn 0.000000 0.000000 1.000000
vn 0.000000 0.000000 1.000000
vn 0.000000 0.000000 1.000000
vn 0.000000 0.000000 1.000000
vn 0.000000 0.000000 1.000000
vn 0.000000 1.000000 0.000000
vn 0.000000 1.000000 0.000000
vn 0.000000 1.000000 0.000000
vn 0.000000 1.000000 0.000000
vn 0.000000 1.000000 0.000000
vn 0.000000 1.000000 0.000000
vn 0.000000 1.000000 0.000000
vn 0.000000 1.000000 0.000000
vn 0.000000 1.000000 0.000000
vn 0.000000 0.000000 -1.000000
vn 0.000000 0.000000 -1.000000
vn 0.000000 0.000000 -1.000000
vn 0.000000 0.000000 -1.000000
vn 0.000000 0.000000 -1.000000
vn 0.000000 0.000000 -1.000000
vn 0.000000 0.000000 -1.000000
vn 0.000000 0.000000 -1.000000
vn 0.000000 0.000000 -1.000000
vn 0.000000 -1.000000 0.000000
vn 0.000000 -1.000000 0.000000
vn 0.000000 -1.000000 0.000000
vn 0.000000 -1.000000 0.000000
vn 0.000000 -1.000000 0.000000
vn 0.000000 -1.000000 0.000000
vn 0.000000 -1.000000 0.000000
vn 0.000000 -1.000000 0.000000
vn 0.000000 -1.000000 0.000000
vn 1.000000 0.000000 0.000000
vn 1.000000 0.000000 0.000000
vn 1.000000 0.000000 0.000000
vn 1.000000 0.000000 0.000000
vn 1.000000 0.000000 0.000000
vn 1.000000 0.000000 0.000000
vn 1.000000 0.000000 0.000000
vn 1.000000 0.000000 0.000000
vn 1.000000 0.000000 0.000000
vn 1.000000 0.000000 0.000000
vn 1.000000 0.000000 0.000000
vn 1.000000 0.000000 0.000000
vn -1.000000 0.000000 0.000000
vn -1.000000 0.000000 0.000000
vn -1.000000 0.000000 0.000000
vn -1.000000 0.000000 0.000000
vn -1.000000 0.000000 0.000000
vn -1.000000 0.000000 0.000000
vn -1.000000 0.000000 0.000000
vn -1.000000 0.000000 0.000000
vn -1.000000 0.000000 0.000000
vn 0.685566 -0.728011 0.000000
vn 0.685566 -0.728011 0.000000
vn 0.685566 -0.728011 0.000000
vn 0.685566 -0.728011 0.000000
vn 0.692485 0.000000 -0.721432
vn 0.692485 0.000000 -0.721432
vn 0.692485 0.000000 -0.721432
vn 0.692485 0.000000 -0.721432
vn 0.333139 0.000000 0.942878
vn 0.333139 0.000000 0.942878
vn 0.333139 0.000000 0.942878
vn 0.333139 0.000000 0.942878
vn 0.692485 0.000000 -0.721432
vn 0.692485 0.000000 -0.721432
vn 0.692485 0.000000 -0.721432
vn 0.692485 0.000000 -0.721432
vn 0.685565 0.728012 0.000000
vn 0.685565 0.728012 0.000000
vn 0.685565 0.728012 0.000000
vn 0.685565 0.728012 0.000000
vn 0.333139 0.000000 0.942878
vn 0.333139 0.000000 0.942878
vn 0.333139 0.000000 0.942878
vn 0.333139 0.000000 0.942878
vn 0.670727 -0.741704 0.000000
vn 0.670727 -0.741704 0.000000
vn 0.670727 -0.741704 0.000000
vn 0.670727 -0.741704 0.000000
vn 0.275231 0.000000 -0.961378
vn 0.275231 0.000000 -0.961378
vn 0.275231 0.000000 -0.961378
vn 0.275231 0.000000 -0.961378
vn 0.645151 0.000000 0.764055
vn 0.645151 0.000000 0.764055
vn 0.645151 0.000000 0.764055
vn 0.645151 0.000000 0.764055
vn 0.275232 0.000000 -0.961378
vn 0.275232 0.000000 -0.961378
vn 0.275232 0.000000 -0.961378
vn 0.275232 0.000000 -0.961378
vn 0.670728 0.741704 0.000000
vn 0.670728 0.741704 0.000000
vn 0.670728 0.741704 0.000000
vn 0.670728 0.741704 0.000000
vn 0.645151 0.000000 0.764055
vn 0.645151 0.000000 0.764055
vn 0.645151 0.000000 0.764055
vn 0.645151 0.000000 0.764055
vn -0.999419 -0.034087 0.000000
vn -0.999419 -0.034087 0.000000
vn -0.999419 -0.034087 0.000000
vn -0.999419 -0.034087 0.000000
vn 1.000000 0.000000 0.000000
vn 1.000000 0.000000 0.000000
vn 1.000000 0.000000 0.000000
vn 1.000000 0.000000 0.000000
vn 1.000000 0.000000 0.000000
vn 1.000000 0.000000 0.000000
vn 1.000000 0.000000 0.000000
vn 1.000000 0.000000 0.000000
vn 1.000000 0.000000 0.000000
vn 1.000000 0.000000 0.000000
vn 1.000000 0.000000 0.000000
vn 1.000000 0.000000 0.000000
vn -0.999419 0.034087 0.000000
vn -0.999419 0.034087 0.000000
vn -0.999419 0.034087 0.000000
vn -0.999419 0.034087 0.000000
vn 1.000000 0.000000 0.000000
vn 1.000000 0.000000 0.000000
vn 1.000000 0.000000 0.000000
vn 1.000000 0.000000 0.000000
s 1
g pCube3
usemtl initialShadingGroup
f 1/1/1 2/2/2 5/5/3 4/4/4
f 2/2/2 3/3/5 6/6/6 5/5/3
f 4/4/4 5/5/3 8/8/7 7/7/8
f 5/5/3 6/6/6 9/9/9 8/8/7
s 2
f 7/7/10 8/8/11 11/11/12 10/10/13
f 8/8/11 9/9/14 12/12/15 11/11/12
f 10/10/13 11/11/12 14/14/16 13/13/17
f 11/11/12 12/12/15 15/15/18 14/14/16
s 3
f 13/13/19 14/14/20 17/17/21 16/16/22
f 14/14/20 15/15/23 18/18/24 17/17/21
f 16/16/22 17/17/21 20/20/25 19/19/26
f 17/17/21 18/18/24 21/21/27 20/20/25
s 4
f 19/19/28 20/20/29 23/23/30 22/22/31
f 20/20/29 21/21/32 24/24/33 23/23/30
f 22/22/31 23/23/30 2/26/34 1/25/35
f 23/23/30 24/24/33 3/27/36 2/26/34
s 5
f 34/46/37 33/47/38 35/48/39 36/49/40
s 6
f 40/52/41 39/53/42 41/54/43 42/55/44
s 5
f 36/49/40 35/48/39 37/50/45 38/51/46
s 6
f 42/55/44 41/54/43 43/56/47 44/57/48
s 7
f 19/34/49 22/35/50 26/37/51 16/36/52
f 22/35/50 1/1/53 4/4/54 26/37/51
f 16/36/52 26/37/51 10/39/55 13/38/56
f 26/37/51 4/4/54 7/7/57 10/39/55
s off
f 3/3/58 24/29/59 27/41/60 28/40/61
f 24/29/62 25/31/63 29/42/64 27/41/65
f 6/6/66 3/3/67 28/40/68 30/43/69
f 25/31/70 12/33/71 31/44/72 29/42/73
f 12/33/74 9/9/75 32/45/76 31/44/77
f 9/9/78 6/6/79 30/43/80 32/45/81
f 24/29/82 21/28/83 33/47/84 34/46/85
f 21/28/86 18/30/87 35/48/88 33/47/89
f 25/31/90 24/29/91 34/46/92 36/49/93
f 18/30/94 15/32/95 37/50/96 35/48/97
f 15/32/98 12/33/99 38/51/100 37/50/101
f 12/33/102 25/31/103 36/49/104 38/51/105
f 28/40/106 27/41/107 39/53/108 40/52/109
f 27/41/110 29/42/111 41/54/112 39/53/113
f 30/43/114 28/40/115 40/52/116 42/55/117
f 29/42/118 31/44/119 43/56/120 41/54/121
f 31/44/122 32/45/123 44/57/124 43/56/125
f 32/45/126 30/43/127 42/55/128 44/57/129
g default
v 0.234107 0.611875 -0.068473
v 0.297765 0.611875 -0.068473
v 0.361422 0.611875 -0.068473
v 0.234107 0.784150 -0.068473
v 0.297765 0.784150 -0.068473
v 0.361422 0.784150 -0.068473
v 0.234107 0.956425 -0.068473
v 0.297765 0.956425 -0.068473
v 0.361422 0.956425 -0.068473
v 0.234107 0.956425 -0.098343
v 0.297765 0.956425 -0.098343
v 0.361422 0.956425 -0.098343
v 0.234107 0.956425 -0.128214
v 0.297765 0.956425 -0.128214
v 0.361422 0.956425 -0.128214
v 0.234107 0.784150 -0.128214
v 0.297765 0.784150 -0.128214
v 0.361422 0.784150 -0.128214
v 0.234107 0.611875 -0.128214
v 0.297765 0.611875 -0.128214
v 0.361422 0.611875 -0.128214
v 0.234107 0.611875 -0.098343
v 0.297765 0.611875 -0.098343
v 0.361422 0.611875 -0.098343
v 0.234107 0.784150 -0.098343
v 0.375797 0.623373 -0.123675
v 0.375797 0.623373 -0.098343
v 0.375797 0.784150 -0.123675
v 0.375797 0.784150 -0.098343
v 0.375797 0.623373 -0.073012
v 0.375797 0.784150 -0.073012
v 0.375797 0.944926 -0.123675
v 0.375797 0.944926 -0.098343
v 0.375797 0.944926 -0.073012
vt 0.375000 0.000000
vt 0.500000 0.000000
vt 0.625000 0.000000
vt 0.375000 0.125000
vt 0.500000 0.125000
vt 0.625000 0.125000
vt 0.375000 0.250000
vt 0.500000 0.250000
vt 0.625000 0.250000
vt 0.375000 0.375000
vt 0.500000 0.375000
vt 0.625000 0.375000
vt 0.375000 0.500000
vt 0.500000 0.500000
vt 0.625000 0.500000
vt 0.375000 0.625000
vt 0.500000 0.625000
vt 0.625000 0.625000
vt 0.375000 0.750000
vt 0.500000 0.750000
vt 0.625000 0.750000
vt 0.375000 0.875000
vt 0.500000 0.875000
vt 0.625000 0.875000
vt 0.375000 1.000000
vt 0.500000 1.000000
vt 0.625000 1.000000
vt 0.875000 0.000000
vt 0.750000 0.000000
vt 0.875000 0.125000
vt 0.750000 0.125000
vt 0.875000 0.250000
vt 0.750000 0.250000
vt 0.125000 0.000000
vt 0.250000 0.000000
vt 0.125000 0.125000
vt 0.250000 0.125000
vt 0.125000 0.250000
vt 0.250000 0.250000
vt 0.750000 0.000000
vt 0.875000 0.000000
vt 0.875000 0.125000
vt 0.625000 0.000000
vt 0.625000 0.125000
vt 0.875000 0.250000
vt 0.750000 0.250000
vt 0.625000 0.250000
vn 0.000000 0.000000 1.000000
vn 0.000000 0.000000 1.000000
vn 0.000000 0.000000 1.000000
vn 0.000000 0.000000 1.000000
vn 0.000000 0.000000 1.000000
vn 0.000000 0.000000 1.000000
vn 0.000000 0.000000 1.000000
vn 0.000000 0.000000 1.000000
vn 0.000000 0.000000 1.000000
vn 0.000000 1.000000 0.000000
vn 0.000000 1.000000 0.000000
vn 0.000000 1.000000 0.000000
vn 0.000000 1.000000 0.000000
vn 0.000000 1.000000 0.000000
vn 0.000000 1.000000 0.000000
vn 0.000000 1.000000 0.000000
vn 0.000000 1.000000 0.000000
vn 0.000000 1.000000 0.000000
vn 0.000000 0.000000 -1.000000
vn 0.000000 0.000000 -1.000000
vn 0.000000 0.000000 -1.000000
vn 0.000000 0.000000 -1.000000
vn 0.000000 0.000000 -1.000000
vn 0.000000 0.000000 -1.000000
vn 0.000000 0.000000 -1.000000
vn 0.000000 0.000000 -1.000000
vn 0.000000 0.000000 -1.000000
vn 0.000000 -1.000000 0.000000
vn 0.000000 -1.000000 0.000000
vn 0.000000 -1.000000 0.000000
vn 0.000000 -1.000000 0.000000
vn 0.000000 -1.000000 0.000000
vn 0.000000 -1.000000 0.000000
vn 0.000000 -1.000000 0.000000
vn 0.000000 -1.000000 0.000000
vn 0.000000 -1.000000 0.000000
vn 1.000000 0.000000 0.000000
vn 1.000000 0.000000 0.000000
vn 1.000000 0.000000 0.000000
vn 1.000000 0.000000 0.000000
vn 1.000000 0.000000 0.000000
vn 1.000000 0.000000 0.000000
vn 1.000000 0.000000 0.000000
vn 1.000000 0.000000 0.000000
vn 1.000000 0.000000 0.000000
vn -1.000000 0.000000 0.000000
vn -1.000000 0.000000 0.000000
vn -1.000000 0.000000 0.000000
vn -1.000000 0.000000 0.000000
vn -1.000000 0.000000 0.000000
vn -1.000000 0.000000 0.000000
vn -1.000000 0.000000 0.000000
vn -1.000000 0.000000 0.000000
vn -1.000000 0.000000 0.000000
vn 0.624671 -0.780888 0.000000
vn 0.624671 -0.780888 0.000000
vn 0.624671 -0.780888 0.000000
vn 0.624671 -0.780888 0.000000
vn 0.301116 0.000000 -0.953588
vn 0.301116 0.000000 -0.953588
vn 0.301116 0.000000 -0.953588
vn 0.301116 0.000000 -0.953588
vn 0.624671 -0.780888 0.000000
vn 0.624671 -0.780888 0.000000
vn 0.624671 -0.780888 0.000000
vn 0.624671 -0.780888 0.000000
vn 0.301115 0.000000 0.953588
vn 0.301115 0.000000 0.953588
vn 0.301115 0.000000 0.953588
vn 0.301115 0.000000 0.953588
vn 0.301115 0.000000 -0.953588
vn 0.301115 0.000000 -0.953588
vn 0.301115 0.000000 -0.953588
vn 0.301115 0.000000 -0.953588
vn 0.624671 0.780888 0.000000
vn 0.624671 0.780888 0.000000
vn 0.624671 0.780888 0.000000
vn 0.624671 0.780888 0.000000
vn 0.624671 0.780888 0.000000
vn 0.624671 0.780888 0.000000
vn 0.624671 0.780888 0.000000
vn 0.624671 0.780888 0.000000
vn 0.301115 0.000000 0.953588
vn 0.301115 0.000000 0.953588
vn 0.301115 0.000000 0.953588
vn 0.301115 0.000000 0.953588
s 1
g pCube4
usemtl initialShadingGroup
f 45/58/130 46/59/131 49/62/132 48/61/133
f 46/59/131 47/60/134 50/63/135 49/62/132
f 48/61/133 49/62/132 52/65/136 51/64/137
f 49/62/132 50/63/135 53/66/138 52/65/136
s 2
f 51/64/139 52/65/140 55/68/141 54/67/142
f 52/65/140 53/66/143 56/69/144 55/68/141
f 54/67/142 55/68/141 58/71/145 57/70/146
f 55/68/141 56/69/144 59/72/147 58/71/145
s 3
f 57/70/148 58/71/149 61/74/150 60/73/151
f 58/71/149 59/72/152 62/75/153 61/74/150
f 60/73/151 61/74/150 64/77/154 63/76/155
f 61/74/150 62/75/153 65/78/156 64/77/154
s 4
f 63/76/157 64/77/158 67/80/159 66/79/160
f 64/77/158 65/78/161 68/81/162 67/80/159
f 66/79/160 67/80/159 46/83/163 45/82/164
f 67/80/159 68/81/162 47/84/165 46/83/163
s 5
f 71/97/166 70/98/167 72/99/168 73/88/169
f 74/100/170 71/97/166 73/88/169 75/101/171
f 73/88/169 72/99/168 76/102/172 77/103/173
f 75/101/171 73/88/169 77/103/173 78/104/174
s 6
f 63/91/175 66/92/176 69/94/177 60/93/178
f 66/92/176 45/58/179 48/61/180 69/94/177
f 60/93/178 69/94/177 54/96/181 57/95/182
f 69/94/177 48/61/180 51/64/183 54/96/181
s off
f 68/86/184 65/85/185 70/98/186 71/97/187
f 65/85/188 62/87/189 72/99/190 70/98/191
f 47/60/192 68/86/193 71/97/194 74/100/195
f 50/63/196 47/60/197 74/100/198 75/101/199
f 62/87/200 59/89/201 76/102/202 72/99/203
f 59/89/204 56/90/205 77/103/206 76/102/207
f 56/90/208 53/66/209 78/104/210 77/103/211
f 53/66/212 50/63/213 75/101/214 78/104/215
g default
v 0.234107 0.611875 0.127772
v 0.297765 0.611875 0.127772
v 0.361422 0.611875 0.127772
v 0.234107 0.784150 0.127772
v 0.297765 0.784150 0.127772
v 0.361422 0.784150 0.127772
v 0.234107 0.956425 0.127772
v 0.297765 0.956425 0.127772
v 0.361422 0.956425 0.127772
v 0.234107 0.956425 0.097901
v 0.297765 0.956425 0.097901
v 0.361422 0.956425 0.097901
v 0.234107 0.956425 0.068030
v 0.297765 0.956425 0.068030
v 0.361422 0.956425 0.068030
v 0.234107 0.784150 0.068030
v 0.297765 0.784150 0.068030
v 0.361422 0.784150 0.068030
v 0.234107 0.611875 0.068030
v 0.297765 0.611875 0.068030
v 0.361422 0.611875 0.068030
v 0.234107 0.611875 0.097901
v 0.297765 0.611875 0.097901
v 0.361422 0.611875 0.097901
v 0.234107 0.784150 0.097901
v 0.375797 0.623373 0.072569
v 0.375797 0.623373 0.097901
v 0.375797 0.784150 0.072569
v 0.375797 0.784150 0.097901
v 0.375797 0.623373 0.123233
v 0.375797 0.784150 0.123233
v 0.375797 0.944926 0.072569
v 0.375797 0.944926 0.097901
v 0.375797 0.944926 0.123233
vt 0.375000 0.000000
vt 0.500000 0.000000
vt 0.625000 0.000000
vt 0.375000 0.125000
vt 0.500000 0.125000
vt 0.625000 0.125000
vt 0.375000 0.250000
vt 0.500000 0.250000
vt 0.625000 0.250000
vt 0.375000 0.375000
vt 0.500000 0.375000
vt 0.625000 0.375000
vt 0.375000 0.500000
vt 0.500000 0.500000
vt 0.625000 0.500000
vt 0.375000 0.625000
vt 0.500000 0.625000
vt 0.625000 0.625000
vt 0.375000 0.750000
vt 0.500000 0.750000
vt 0.625000 0.750000
vt 0.375000 0.875000
vt 0.500000 0.875000
vt 0.625000 0.875000
vt 0.375000 1.000000
vt 0.500000 1.000000
vt 0.625000 1.000000
vt 0.875000 0.000000
vt 0.750000 0.000000
vt 0.875000 0.125000
vt 0.750000 0.125000
vt 0.875000 0.250000
vt 0.750000 0.250000
vt 0.125000 0.000000
vt 0.250000 0.000000
vt 0.125000 0.125000
vt 0.250000 0.125000
vt 0.125000 0.250000
vt 0.250000 0.250000
vt 0.750000 0.000000
vt 0.875000 0.000000
vt 0.875000 0.125000
vt 0.625000 0.000000
vt 0.625000 0.125000
vt 0.875000 0.250000
vt 0.750000 0.250000
vt 0.625000 0.250000
vn 0.000000 0.000000 1.000000
vn 0.000000 0.000000 1.000000
vn 0.000000 0.000000 1.000000
vn 0.000000 0.000000 1.000000
vn 0.000000 0.000000 1.000000
vn 0.000000 0.000000 1.000000
vn 0.000000 0.000000 1.000000
vn 0.000000 0.000000 1.000000
vn 0.000000 0.000000 1.000000
vn 0.000000 1.000000 0.000000
vn 0.000000 1.000000 0.000000
vn 0.000000 1.000000 0.000000
vn 0.000000 1.000000 0.000000
vn 0.000000 1.000000 0.000000
vn 0.000000 1.000000 0.000000
vn 0.000000 1.000000 0.000000
vn 0.000000 1.000000 0.000000
vn 0.000000 1.000000 0.000000
vn 0.000000 0.000000 -1.000000
vn 0.000000 0.000000 -1.000000
vn 0.000000 0.000000 -1.000000
vn 0.000000 0.000000 -1.000000
vn 0.000000 0.000000 -1.000000
vn 0.000000 0.000000 -1.000000
vn 0.000000 0.000000 -1.000000
vn 0.000000 0.000000 -1.000000
vn 0.000000 0.000000 -1.000000
vn 0.000000 -1.000000 0.000000
vn 0.000000 -1.000000 0.000000
vn 0.000000 -1.000000 0.000000
vn 0.000000 -1.000000 0.000000
vn 0.000000 -1.000000 0.000000
vn 0.000000 -1.000000 0.000000
vn 0.000000 -1.000000 0.000000
vn 0.000000 -1.000000 0.000000
vn 0.000000 -1.000000 0.000000
vn 1.000000 0.000000 0.000000
vn 1.000000 0.000000 0.000000
vn 1.000000 0.000000 0.000000
vn 1.000000 0.000000 0.000000
vn 1.000000 0.000000 0.000000
vn 1.000000 0.000000 0.000000
vn 1.000000 0.000000 0.000000
vn 1.000000 0.000000 0.000000
vn 1.000000 0.000000 0.000000
vn -1.000000 0.000000 0.000000
vn -1.000000 0.000000 0.000000
vn -1.000000 0.000000 0.000000
vn -1.000000 0.000000 0.000000
vn -1.000000 0.000000 0.000000
vn -1.000000 0.000000 0.000000
vn -1.000000 0.000000 0.000000
vn -1.000000 0.000000 0.000000
vn -1.000000 0.000000 0.000000
vn 0.624671 -0.780888 0.000000
vn 0.624671 -0.780888 0.000000
vn 0.624671 -0.780888 0.000000
vn 0.624671 -0.780888 0.000000
vn 0.301116 0.000000 -0.953588
vn 0.301116 0.000000 -0.953588
vn 0.301116 0.000000 -0.953588
vn 0.301116 0.000000 -0.953588
vn 0.624671 -0.780888 0.000000
vn 0.624671 -0.780888 0.000000
vn 0.624671 -0.780888 0.000000
vn 0.624671 -0.780888 0.000000
vn 0.301115 0.000000 0.953588
vn 0.301115 0.000000 0.953588
vn 0.301115 0.000000 0.953588
vn 0.301115 0.000000 0.953588
vn 0.301115 0.000000 -0.953588
vn 0.301115 0.000000 -0.953588
vn 0.301115 0.000000 -0.953588
vn 0.301115 0.000000 -0.953588
vn 0.624671 0.780888 0.000000
vn 0.624671 0.780888 0.000000
vn 0.624671 0.780888 0.000000
vn 0.624671 0.780888 0.000000
vn 0.624671 0.780888 0.000000
vn 0.624671 0.780888 0.000000
vn 0.624671 0.780888 0.000000
vn 0.624671 0.780888 0.000000
vn 0.301115 0.000000 0.953588
vn 0.301115 0.000000 0.953588
vn 0.301115 0.000000 0.953588
vn 0.301115 0.000000 0.953588
s 1
g pasted__pCube4 group3
usemtl initialShadingGroup
f 79/105/216 80/106/217 83/109/218 82/108/219
f 80/106/217 81/107/220 84/110/221 83/109/218
f 82/108/219 83/109/218 86/112/222 85/111/223
f 83/109/218 84/110/221 87/113/224 86/112/222
s 2
f 85/111/225 86/112/226 89/115/227 88/114/228
f 86/112/226 87/113/229 90/116/230 89/115/227
f 88/114/228 89/115/227 92/118/231 91/117/232
f 89/115/227 90/116/230 93/119/233 92/118/231
s 3
f 91/117/234 92/118/235 95/121/236 94/120/237
f 92/118/235 93/119/238 96/122/239 95/121/236
f 94/120/237 95/121/236 98/124/240 97/123/241
f 95/121/236 96/122/239 99/125/242 98/124/240
s 4
f 97/123/243 98/124/244 101/127/245 100/126/246
f 98/124/244 99/125/247 102/128/248 101/127/245
f 100/126/246 101/127/245 80/130/249 79/129/250
f 101/127/245 102/128/248 81/131/251 80/130/249
s 5
f 105/144/252 104/145/253 106/146/254 107/135/255
f 108/147/256 105/144/252 107/135/255 109/148/257
f 107/135/255 106/146/254 110/149/258 111/150/259
f 109/148/257 107/135/255 111/150/259 112/151/260
s 6
f 97/138/261 100/139/262 103/141/263 94/140/264
f 100/139/262 79/105/265 82/108/266 103/141/263
f 94/140/264 103/141/263 88/143/267 91/142/268
f 103/141/263 82/108/266 85/111/269 88/143/267
s off
f 102/133/270 99/132/271 104/145/272 105/144/273
f 99/132/274 96/134/275 106/146/276 104/145/277
f 81/107/278 102/133/279 105/144/280 108/147/281
f 84/110/282 81/107/283 108/147/284 109/148/285
f 96/134/286 93/136/287 110/149/288 106/146/289
f 93/136/290 90/137/291 111/150/292 110/149/293
f 90/137/294 87/113/295 112/151/296 111/150/297
f 87/113/298 84/110/299 109/148/300 112/151/301
